<svg viewBox="0 0 156 132" xmlns="http://www.w3.org/2000/svg" xmlns:xlink="http://www.w3.org/1999/xlink"><svg width="24" height="24" viewBox="0 0 24 24" id="article_24" x="56" y="80" xmlns="http://www.w3.org/2000/svg"><defs><path d="M20 11a1 1 0 0 1 1 1v0.5a1 1 0 0 1 -1 1H4a1 1 0 0 1 -1 -1V12a1 1 0 0 1 1 -1h16zm0 -5.5a1 1 0 0 1 1 1V7a1 1 0 0 1 -1 1H4a1 1 0 0 1 -1 -1v-0.5a1 1 0 0 1 1 -1h16zM4 19a1 1 0 0 1 -1 -1v-0.5a1 1 0 0 1 1 -1h9a1 1 0 0 1 1 1v0.5a1 1 0 0 1 -1 1H4z" id="aa"/></defs><g fill="none" fill-rule="evenodd"><path d="M0 0h24v24H0z"/><use fill="#99A2AD" fill-rule="nonzero" xlink:href="#aa"/></g></svg><svg width="24" height="24" viewBox="0 0 24 24" id="comment_outline_24" x="108" y="48" xmlns="http://www.w3.org/2000/svg"><defs><path d="M13.766 17.446a1.4 1.4 0 0 1 0.922 -0.346H18.5c1.003 0 1.6 -0.597 1.6 -1.6v-8c0 -1.003 -0.597 -1.6 -1.6 -1.6h-12c-1.003 0 -1.6 0.597 -1.6 1.6v8c0 1.003 0.597 1.6 1.6 1.6h2.499c0.7 0.202 0.7 0.202 0.901 0.901v2.829l3.866 -3.384zm-4.931 5.086C8.363 22.178 8.1 21.554 8.1 21v-2.1H6.5c-1.997 0 -3.4 -1.403 -3.4 -3.4v-8c0 -1.997 1.403 -3.4 3.4 -3.4h12c1.997 0 3.4 1.403 3.4 3.4v8c0 1.997 -1.403 3.4 -3.4 3.4h-3.662l-3.725 3.26c-0.732 0.718 -1.589 0.89 -2.278 0.372z" id="ba"/></defs><g fill="none" fill-rule="evenodd"><path opacity=".4" d="M0 0h24v24H0z"/><use fill="#99A2AD" fill-rule="nonzero" xlink:href="#ba"/></g></svg><svg width="24" height="24" viewBox="0 0 24 24" id="document_24" x="108" y="72" xmlns="http://www.w3.org/2000/svg"><g fill="none" fill-rule="evenodd"><path opacity=".4" d="M0 0h24v24H0z"/><path d="M7.846 2h5.295c0.775 0 1.043 0.028 1.34 0.096 0.297 0.069 0.56 0.178 0.818 0.34 0.258 0.161 0.468 0.33 1.015 0.878l3.372 3.372c0.547 0.547 0.717 0.757 0.879 1.015 0.161 0.258 0.27 0.521 0.339 0.818 0.068 0.297 0.096 0.565 0.096 1.34v7.295c0 1.337 -0.14 1.822 -0.4 2.311a2.726 2.726 0 0 1 -1.135 1.134c-0.489 0.262 -0.974 0.401 -2.31 0.401h-9.31c-1.336 0 -1.821 -0.14 -2.31 -0.4A2.726 2.726 0 0 1 4.4 19.464c-0.262 -0.489 -0.401 -0.974 -0.401 -2.31V5.844c0 -1.336 0.14 -1.821 0.4 -2.31A2.726 2.726 0 0 1 5.536 2.4c0.488 -0.261 0.973 -0.4 2.309 -0.4zm6.166 2.012a0.3 0.3 0 0 0 -0.512 0.212V8a0.5 0.5 0 0 0 0.5 0.5h3.776a0.3 0.3 0 0 0 0.212 -0.512l-3.976 -3.976z" fill="#99A2AD" fill-rule="nonzero"/></g></svg><svg width="40" height="40" viewBox="0 0 40 40" id="done_circle_40" xmlns="http://www.w3.org/2000/svg"><g fill="none" fill-rule="evenodd"><path d="M20 40C8.954 40 0 31.046 0 20S8.954 0 20 0s20 8.954 20 20 -8.954 20 -20 20zm0 -2.5c9.665 0 17.5 -7.835 17.5 -17.5S29.665 2.5 20 2.5 2.5 10.335 2.5 20 10.335 37.5 20 37.5z" fill="#528BCC" fill-rule="nonzero"/><path opacity=".1" d="M8 8h24v24H8z"/><path stroke="#528BCC" stroke-width="2.5" stroke-linecap="round" stroke-linejoin="round" d="M12 20.5l5 5L27.5 15"/></g></svg><svg width="40" height="40" viewBox="0 0 40 40" id="error_circle_40" x="40" xmlns="http://www.w3.org/2000/svg"><defs><path d="M18.4 20.855V12.6a1.6 1.6 0 1 1 3.2 0v8.255a1.6 1.6 0 0 1 -3.2 0zM18 27v-0.09a2 2 0 0 1 4 0V27a2 2 0 0 1 -4 0z" id="ea"/></defs><g fill="#528BCC" fill-rule="nonzero"><path d="M20 40C8.954 40 0 31.046 0 20S8.954 0 20 0s20 8.954 20 20 -8.954 20 -20 20zm0 -2.5c9.665 0 17.5 -7.835 17.5 -17.5S29.665 2.5 20 2.5 2.5 10.335 2.5 20 10.335 37.5 20 37.5z"/><use xlink:href="#ea"/></g></svg><svg width="28" height="28" viewBox="0 0 28 28" id="favorite_28" x="80" xmlns="http://www.w3.org/2000/svg"><defs><path d="M17.97 9.593l5.258 0.504c1.83 0.176 2.39 1.963 0.978 3.137l-4.116 3.42 1.528 5.573c0.502 1.83 -1.055 2.938 -2.614 1.837l-5.002 -3.533 -5 3.533c-1.554 1.097 -3.117 -0.006 -2.615 -1.837l1.528 -5.572 -4.116 -3.421c-1.419 -1.179 -0.86 -2.96 0.977 -3.137l5.257 -0.504 2.316 -5.34c0.725 -1.671 2.582 -1.67 3.307 0l2.315 5.34z" id="fa"/></defs><g fill="none" fill-rule="evenodd"><path d="M0 0h28v28H0z"/><use fill="#528BCC" fill-rule="nonzero" xlink:href="#fa"/></g></svg><svg width="28" height="28" viewBox="0 0 28 28" id="favorite_outline_28" x="80" y="28" xmlns="http://www.w3.org/2000/svg"><g fill="none" fill-rule="evenodd"><path d="M2 2h24v24H2z"/><path d="M14 19.178l5.69 3.476a0.205 0.205 0 0 0 0.306 -0.223l-1.547 -6.485 5.064 -4.338a0.205 0.205 0 0 0 -0.117 -0.36l-6.646 -0.533 -2.56 -6.156a0.205 0.205 0 0 0 -0.38 0l-2.56 6.156 -6.646 0.533a0.205 0.205 0 0 0 -0.117 0.36l5.064 4.338 -1.547 6.485a0.205 0.205 0 0 0 0.306 0.223L14 19.178zm0 2.344L9.352 24.36a2.205 2.205 0 0 1 -3.294 -2.393l1.264 -5.297 -4.136 -3.543a2.205 2.205 0 0 1 1.258 -3.873l5.429 -0.435 2.091 -5.028a2.205 2.205 0 0 1 4.072 0l2.091 5.028 5.429 0.435a2.205 2.205 0 0 1 1.258 3.873l-4.136 3.543 1.264 5.297a2.205 2.205 0 0 1 -3.294 2.393L14 21.522z" fill="#528BCC" fill-rule="nonzero"/></g></svg><svg width="24" height="24" viewBox="0 0 24 24" id="like_24" x="132" y="24" xmlns="http://www.w3.org/2000/svg"><defs><path d="M16.737 3.1A6.163 6.163 0 0 1 22.9 9.263c0 3.42 -1.368 5.131 -7.116 9.602L13.166 20.9a1.9 1.9 0 0 1 -2.332 0l-2.618 -2.036C2.468 14.395 1.1 12.682 1.1 9.263A6.163 6.163 0 0 1 7.263 3.1C9.08 3.1 10.656 4.161 12 6.186 13.344 4.161 14.92 3.1 16.737 3.1z" id="ha"/></defs><g fill="none" fill-rule="evenodd"><path opacity=".4" d="M0 0h24v24H0z"/><use fill="#FF3347" fill-rule="nonzero" xlink:href="#ha"/></g></svg><svg width="24" height="24" viewBox="0 0 24 24" id="like_outline_24" x="80" y="56" xmlns="http://www.w3.org/2000/svg"><defs><path d="M16.737 3.1A6.163 6.163 0 0 1 22.9 9.263c0 3.42 -1.368 5.131 -7.116 9.602L13.166 20.9a1.9 1.9 0 0 1 -2.332 0l-2.618 -2.036C2.468 14.395 1.1 12.682 1.1 9.263A6.163 6.163 0 0 1 7.263 3.1c1.783 0 3.37 0.818 4.737 2.395C13.367 3.918 14.954 3.1 16.737 3.1zM7.263 4.9A4.363 4.363 0 0 0 2.9 9.263c0 2.67 1.091 4.036 6.421 8.181l2.618 2.036a0.1 0.1 0 0 0 0.122 0l2.618 -2.036c5.33 -4.145 6.421 -5.511 6.421 -8.18A4.363 4.363 0 0 0 16.737 4.9c-1.466 0 -2.785 0.826 -3.997 2.578L12 8.548l-0.74 -1.07C10.048 5.726 8.729 4.9 7.263 4.9z" id="ia"/></defs><g fill="none" fill-rule="evenodd"><path opacity=".4" d="M0 0h24v24H0z"/><use fill="#99A2AD" fill-rule="nonzero" xlink:href="#ia"/></g></svg><svg width="40" height="40" viewBox="0 0 40 40" id="loading_40" y="40" xmlns="http://www.w3.org/2000/svg"><path d="M20 40a1.25 1.25 0 0 1 0 -2.5c9.665 0 17.5 -7.835 17.5 -17.5S29.665 2.5 20 2.5 2.5 10.335 2.5 20c0 3.902 1.28 7.607 3.603 10.638A1.25 1.25 0 1 1 4.12 32.16 19.915 19.915 0 0 1 0 20C0 8.954 8.954 0 20 0s20 8.954 20 20 -8.954 20 -20 20z" fill="#528BCC"/></svg><svg width="24" height="24" viewBox="0 0 24 24" id="music_24" x="80" y="80" xmlns="http://www.w3.org/2000/svg"><g fill="none" fill-rule="evenodd"><path opacity=".4" d="M0 0h24v24H0z"/><path d="M19 10.033v4.453c0 3.471 -1.236 4.219 -3.28 4.494 -1.063 0.143 -2.72 -0.414 -2.72 -2.432 0 -0.986 0.821 -1.965 1.846 -2.167 0.95 -0.187 -0.308 0.058 1.842 -0.352 0.346 -0.066 0.317 -0.313 0.317 -0.58l-0.002 -3.416H17l0.005 -2.576c0 -0.237 -0.073 -0.348 -0.345 -0.28l-7.295 1.33C9.06 8.582 9 8.708 9 9v7.486c0 3.471 -1.236 4.219 -3.28 4.494 -1.063 0.143 -2.72 -0.414 -2.72 -2.432 0 -0.986 0.821 -1.965 1.846 -2.167 0.95 -0.187 -0.308 0.058 1.842 -0.352 0.346 -0.066 0.317 -0.313 0.317 -0.58l-0.002 -4.363h0.001L7 8.55s-0.004 -1.574 0 -2.36c0.005 -0.942 0.51 -1.288 2 -1.594l8 -1.478s2 -0.625 2 1v5.915z" fill="#99A2AD" fill-rule="nonzero"/></g></svg><svg width="24" height="24" viewBox="0 0 24 24" id="newsfeed_24" x="108" xmlns="http://www.w3.org/2000/svg"><defs><path d="M7 2h10a4 4 0 0 1 4 4v12a4 4 0 0 1 -4 4H7a4 4 0 0 1 -4 -4V6a4 4 0 0 1 4 -4zm0 2a2 2 0 0 0 -2 2v12a2 2 0 0 0 2 2h10a2 2 0 0 0 2 -2V6a2 2 0 0 0 -2 -2H7zm1 2h4a1 1 0 0 1 0 2H8a1 1 0 1 1 0 -2zm0 4h8a1 1 0 0 1 1 1v6a1 1 0 0 1 -1 1H8a1 1 0 0 1 -1 -1v-6a1 1 0 0 1 1 -1z" id="la"/></defs><g fill="none" fill-rule="evenodd"><path opacity=".1" d="M0 0h24v24H0z"/><use fill="#99A2AD" fill-rule="nonzero" xlink:href="#la"/></g></svg><svg width="24" height="24" viewBox="0 0 24 24" id="playlist_24" x="108" y="24" xmlns="http://www.w3.org/2000/svg"><defs><path d="M13 6.883A0.88 0.88 0 0 0 12.118 6H2.882A0.888 0.888 0 0 0 2 6.883v0.234A0.88 0.88 0 0 0 2.882 8h9.236A0.888 0.888 0 0 0 13 7.117v-0.234zm0 4a0.88 0.88 0 0 0 -0.882 -0.883H2.882a0.888 0.888 0 0 0 -0.882 0.883v0.234a0.88 0.88 0 0 0 0.882 0.883h9.236a0.888 0.888 0 0 0 0.882 -0.883v-0.234zM2 15.117v-0.234A0.89 0.89 0 0 1 2.885 14h4.227c0.492 0 0.885 0.395 0.885 0.883v0.234a0.89 0.89 0 0 1 -0.885 0.883H2.885A0.882 0.882 0 0 1 2 15.117zm15.004 0.694c0 3.752 -0.993 4.654 -3.776 5.142 -1.48 0.259 -3.223 -0.479 -3.223 -2.81 0 -1.14 0.712 -2.221 2.187 -2.504 1.127 -0.216 -0.42 0.052 2.128 -0.42 0.618 -0.116 0.689 -0.337 0.689 -0.809 0 -0.236 -0.006 -0.428 -0.013 -1.85V8.724s-0.005 -1.83 0 -2.745c0.006 -1.094 0.833 -1.496 2.596 -1.852 0 0 2.35 -0.339 3.827 -0.607 0.327 -0.06 0.576 0.062 0.576 0.437V7.4c0 0.37 -0.15 0.537 -0.524 0.603a228.49 228.49 0 0 1 -3.986 0.649c-0.333 0.081 -0.485 0.315 -0.485 0.652l0.004 6.508z" id="ma"/></defs><g fill="none" fill-rule="evenodd"><path d="M0 0h24v24H0z"/><use fill="#99A2AD" fill-rule="nonzero" xlink:href="#ma"/></g></svg><svg width="36" height="36" viewBox="0 0 36 36" id="posting_close_36" x="40" y="40" xmlns="http://www.w3.org/2000/svg"><defs><path d="M0 10c0 5.52 4.48 10 10 10s10 -4.48 10 -10S15.52 0 10 0 0 4.48 0 10z" id="nb"/><filter x="-20%" y="-20%" width="140%" height="150%" filterUnits="objectBoundingBox" id="na"><feOffset dy="2" in="SourceAlpha" result="shadowOffsetOuter1"/><feGaussianBlur stdDeviation="1" in="shadowOffsetOuter1" result="shadowBlurOuter1"/><feComposite in="shadowBlurOuter1" in2="SourceAlpha" operator="out" result="shadowBlurOuter1"/><feColorMatrix values="0 0 0 0 0 0 0 0 0 0 0 0 0 0 0 0 0 0 0.06 0" in="shadowBlurOuter1" result="shadowMatrixOuter1"/><feOffset in="SourceAlpha" result="shadowOffsetOuter2"/><feGaussianBlur stdDeviation="1" in="shadowOffsetOuter2" result="shadowBlurOuter2"/><feComposite in="shadowBlurOuter2" in2="SourceAlpha" operator="out" result="shadowBlurOuter2"/><feColorMatrix values="0 0 0 0 0 0 0 0 0 0 0 0 0 0 0 0 0 0 0.03 0" in="shadowBlurOuter2" result="shadowMatrixOuter2"/><feMerge><feMergeNode in="shadowMatrixOuter1"/><feMergeNode in="shadowMatrixOuter2"/></feMerge></filter></defs><g fill="none" fill-rule="evenodd"><path opacity=".4" d="M0 0h36v36H0z"/><g transform="translate(8 8)"><use fill="#000" filter="url(#na)" xlink:href="#nb"/><use fill-opacity=".95" fill="#FFF" xlink:href="#nb"/></g><path d="M12 12h12v12H12z"/><path d="M15 15l6 6M21 15l-6 6" stroke="#909499" stroke-width="1.5" stroke-linecap="round" stroke-linejoin="round"/></g></svg><svg width="28" height="28" viewBox="0 0 28 28" id="repost_outline_28" y="80" xmlns="http://www.w3.org/2000/svg"><g fill="none"><path d="M0 0h28v28H0z"/><path d="M18.199 10H12.5a5.5 5.5 0 0 0 0 11H17a1 1 0 0 1 0 2h-4.5a7.5 7.5 0 0 1 0 -15h5.699l-3.332 -2.726a1 1 0 1 1 1.266 -1.548l5.5 4.5a1 1 0 0 1 0 1.548l-5.5 4.5a1 1 0 1 1 -1.266 -1.548L18.199 10z" fill="#528BCC"/></g></svg><svg width="24" height="24" viewBox="0 0 24 24" id="search_24" y="108" xmlns="http://www.w3.org/2000/svg"><defs><path d="M16.535 15.12l4.172 4.173a1 1 0 0 1 -1.414 1.414l-4.172 -4.172a7.25 7.25 0 1 1 1.414 -1.414zM10.75 16a5.25 5.25 0 1 0 0 -10.5 5.25 5.25 0 0 0 0 10.5z" id="pa"/></defs><g fill="none" fill-rule="evenodd"><path opacity=".1" d="M0 0h24v24H0z"/><use fill="#528BCC" fill-rule="nonzero" xlink:href="#pa"/></g></svg><svg width="16" height="16" viewBox="0 0 16 16" id="search_outline_16" x="132" y="92" xmlns="http://www.w3.org/2000/svg"><g fill="none" fill-rule="evenodd" opacity=".92"><path opacity=".1" d="M0 0h16v16H0z"/><path d="M9.823 10.884a5.5 5.5 0 1 1 1.06 -1.06l3.896 3.9a0.75 0.75 0 0 1 -1.061 1.06l-3.895 -3.9zM6.5 10.5a4 4 0 1 0 0 -8 4 4 0 0 0 0 8z" fill="#818C99" fill-rule="nonzero"/></g></svg><svg height="24" width="24" viewBox="0 0 24 24" id="share_external_android_24" x="48" y="108" xmlns="http://www.w3.org/2000/svg"><g fill="none" fill-rule="evenodd"><path d="M0 0h24v24H0z" opacity=".4"/><path d="M17 16.08c-0.76 0 -1.44 0.3 -1.96 0.77L7.91 12.7c0.05 -0.23 0.09 -0.46 0.09 -0.7s-0.04 -0.47 -0.09 -0.7l7.05 -4.11c0.54 0.5 1.25 0.81 2.04 0.81 1.66 0 3 -1.34 3 -3s-1.34 -3 -3 -3 -3 1.34 -3 3c0 0.24 0.04 0.47 0.09 0.7L7.04 9.81C6.5 9.31 5.79 9 5 9c-1.66 0 -3 1.34 -3 3s1.34 3 3 3c0.79 0 1.5 -0.31 2.04 -0.81l7.12 4.16c-0.05 0.21 -0.08 0.43 -0.08 0.65 0 1.61 1.31 2.92 2.92 2.92s2.92 -1.31 2.92 -2.92 -1.31 -2.92 -2.92 -2.92z" fill="#528bcc" fill-rule="nonzero"/></g></svg><svg width="24" height="24" viewBox="0 0 24 24" id="share_external_ios_24" x="72" y="108" xmlns="http://www.w3.org/2000/svg"><defs><path d="M13 5.414V14.5a1 1 0 0 1 -2 0V5.414L8.207 8.207a1 1 0 0 1 -1.414 -1.414l4.5 -4.5a1 1 0 0 1 1.414 0l4.5 4.5a1 1 0 1 1 -1.414 1.414L13 5.414zM4 14a1 1 0 0 1 2 0v4a1 1 0 0 0 1 1h10a1 1 0 0 0 1 -1v-4a1 1 0 0 1 2 0v4a3 3 0 0 1 -3 3H7a3 3 0 0 1 -3 -3v-4z" id="sa"/></defs><g fill="none" fill-rule="evenodd"><path d="M0 0h24v24H0z"/><use fill="#528BCC" fill-rule="nonzero" xlink:href="#sa"/></g></svg><svg width="24" height="24" viewBox="0 0 24 24" id="share_outline_24" x="96" y="108" xmlns="http://www.w3.org/2000/svg"><defs><path d="M0.322 18.25C1.848 11.688 5.832 8.174 12.1 7.87V4.402a1.317 1.317 0 0 1 2.17 -1.004l8.939 7.598a1.317 1.317 0 0 1 0 2.008l-8.939 7.598a1.317 1.317 0 0 1 -2.17 -1.004V16.16c-4.647 0.12 -7.916 1.19 -9.836 3.153A1.15 1.15 0 0 1 0.322 18.25zM13 9.65c-5.262 0 -8.669 2.308 -10.358 7.055C5.096 15.124 8.555 14.35 13 14.35h0.9v4.204L21.61 12 13.9 5.446V9.65H13z" id="ta"/></defs><g fill="none" fill-rule="evenodd"><path d="M0 0h24v24H0z"/><use fill="#99A2AD" fill-rule="nonzero" xlink:href="#ta"/></g></svg><svg width="24" height="24" viewBox="0 0 24 24" id="story_24" x="132" xmlns="http://www.w3.org/2000/svg"><defs><path d="M8.128 3h7.744c1.783 0 2.43 0.186 3.082 0.534 0.652 0.349 1.163 0.86 1.512 1.512 0.348 0.652 0.534 1.299 0.534 3.082v7.744c0 1.783 -0.186 2.43 -0.534 3.082a3.635 3.635 0 0 1 -1.512 1.512c-0.652 0.348 -1.299 0.534 -3.082 0.534H8.128c-1.783 0 -2.43 -0.186 -3.082 -0.534a3.635 3.635 0 0 1 -1.512 -1.512C3.186 18.302 3 17.655 3 15.872V8.128c0 -1.783 0.186 -2.43 0.534 -3.082a3.635 3.635 0 0 1 1.512 -1.512C5.698 3.186 6.345 3 8.128 3zm-1.125 9.003c0 2.76 2.24 5 5 5s5 -2.24 5 -5 -2.24 -5 -5 -5 -5 2.24 -5 5zM8.8 12a3.2 3.2 0 1 1 6.4 0 3.2 3.2 0 0 1 -6.4 0z" id="ua"/></defs><g fill="none" fill-rule="evenodd"><path opacity=".4" d="M0 0h24v24H0z"/><use fill="#99A2AD" fill-rule="nonzero" xlink:href="#ua"/></g></svg><svg width="14" height="14" viewBox="0 0 14 14" id="top_author_14" x="132" y="108" xmlns="http://www.w3.org/2000/svg"><g fill="none" fill-rule="evenodd"><path d="M0 0h14v14H0z"/><path fill="#F05C44" fill-rule="nonzero" d="M6.525 0.043c-0.19 0.141 -0.345 0.254 -0.463 0.338 -3.156 2.252 -4.299 5.437 -4.312 7.7C1.75 11.07 4 13.125 7 13.125s5.213 -2.055 5.25 -5.044c0.01 -0.834 -0.062 -2.772 -1.919 -5.087 -0.522 -0.65 -0.97 -1.1 -1.344 -1.346a0.201 0.201 0 0 0 -0.31 0.189l0.077 0.725C8.934 4.228 8.092 5 6.939 4.83 5.826 4.665 5.1 3.132 6.752 0.58a0.992 0.992 0 0 0 0.116 -0.314 0.219 0.219 0 0 0 -0.343 -0.224z"/></g></svg><svg width="20" height="20" viewBox="0 0 20 20" id="top_author_20" x="132" y="72" xmlns="http://www.w3.org/2000/svg"><g fill="none" fill-rule="evenodd"><path d="M0 0h20v20H0z"/><path fill="#F05C44" fill-rule="nonzero" d="M9.32 0.061c-0.27 0.202 -0.491 0.363 -0.66 0.483 -4.508 3.217 -6.141 7.767 -6.16 11 0 4.27 3.214 7.206 7.5 7.206s7.446 -2.936 7.5 -7.206c0.015 -1.19 -0.089 -3.96 -2.741 -7.267 -0.745 -0.93 -1.386 -1.57 -1.92 -1.923a0.287 0.287 0 0 0 -0.445 0.27l0.112 1.036c0.257 2.38 -0.947 3.483 -2.592 3.24 -1.592 -0.236 -2.628 -2.426 -0.268 -6.07 0.066 -0.102 0.122 -0.252 0.166 -0.449a0.313 0.313 0 0 0 -0.491 -0.32z"/></g></svg><svg width="28" height="28" viewBox="0 0 28 28" id="users_outline_28" x="28" y="80" xmlns="http://www.w3.org/2000/svg"><path d="M17.97 21.2h7.344c0.384 0 0.286 0.107 0.286 -0.644 0 -1.854 -2.646 -2.961 -5.82 -2.961 -0.876 0 -1.711 0.084 -2.462 0.245a5.78 5.78 0 0 0 -1.28 -1.552c1.12 -0.332 2.402 -0.493 3.742 -0.493 4.073 0 7.62 1.485 7.62 4.76 0 1.71 -0.669 2.445 -2.086 2.445h-7.858c0.274 -0.505 0.449 -1.109 0.514 -1.8zm4.55 -11.462c0 -1.574 -1.231 -2.838 -2.74 -2.838 -1.509 0 -2.74 1.264 -2.74 2.837 0 1.574 1.231 2.838 2.74 2.838 1.509 0 2.74 -1.264 2.74 -2.837zm1.8 0c0 2.556 -2.026 4.637 -4.54 4.637 -2.514 0 -4.54 -2.08 -4.54 -4.638 0 -2.556 2.026 -4.637 4.54 -4.637 2.514 0 4.54 2.08 4.54 4.638zm-13 0c0 -1.574 -1.231 -2.838 -2.74 -2.838 -1.509 0 -2.74 1.264 -2.74 2.837 0 1.574 1.231 2.838 2.74 2.838 1.509 0 2.74 -1.264 2.74 -2.837zm1.8 0c0 2.556 -2.026 4.637 -4.54 4.637 -2.514 0 -4.54 -2.08 -4.54 -4.638C4.04 7.182 6.066 5.1 8.58 5.1c2.514 0 4.54 2.08 4.54 4.638zM2.76 20.556c0 0.751 -0.098 0.644 0.286 0.644h11.068c0.384 0 0.286 0.107 0.286 -0.644 0 -1.854 -2.646 -2.961 -5.82 -2.961 -3.174 0 -5.82 1.107 -5.82 2.96zm-1.8 0c0 -3.276 3.547 -4.761 7.62 -4.761s7.62 1.485 7.62 4.76c0 1.71 -0.669 2.445 -2.086 2.445H3.046C1.629 23 0.96 22.265 0.96 20.556z" fill="#528BCC" fill-rule="nonzero"/></svg><svg width="24" height="24" viewBox="0 0 24 24" id="video_24" x="24" y="108" xmlns="http://www.w3.org/2000/svg"><g fill="none" fill-rule="evenodd"><path opacity=".4" d="M0 0h24v24H0z"/><path d="M6.846 3h9.308c1.337 0 1.822 0.14 2.311 0.4 0.49 0.262 0.873 0.646 1.134 1.135 0.262 0.489 0.401 0.974 0.401 2.31v10.81c0 1.336 -0.14 1.821 -0.4 2.31a2.726 2.726 0 0 1 -1.135 1.134c-0.489 0.262 -0.974 0.401 -2.31 0.401h-9.31c-1.336 0 -1.821 -0.14 -2.31 -0.4A2.726 2.726 0 0 1 3.4 19.964c-0.262 -0.489 -0.401 -0.974 -0.401 -2.31V6.844c0 -1.336 0.14 -1.821 0.4 -2.31A2.726 2.726 0 0 1 4.536 3.4c0.488 -0.261 0.973 -0.4 2.309 -0.4zM6.75 6a0.75 0.75 0 0 0 -0.75 0.75v1c0 0.414 0.336 0.75 0.75 0.75h1a0.75 0.75 0 0 0 0.75 -0.75v-1A0.75 0.75 0 0 0 7.75 6h-1zm8.5 0a0.75 0.75 0 0 0 -0.75 0.75v1c0 0.414 0.336 0.75 0.75 0.75h1a0.75 0.75 0 0 0 0.75 -0.75v-1a0.75 0.75 0 0 0 -0.75 -0.75h-1zm-8.5 10a0.75 0.75 0 0 0 -0.75 0.75v1c0 0.414 0.336 0.75 0.75 0.75h1a0.75 0.75 0 0 0 0.75 -0.75v-1a0.75 0.75 0 0 0 -0.75 -0.75h-1zm8.5 0a0.75 0.75 0 0 0 -0.75 0.75v1c0 0.414 0.336 0.75 0.75 0.75h1a0.75 0.75 0 0 0 0.75 -0.75v-1a0.75 0.75 0 0 0 -0.75 -0.75h-1zm-8.5 -5a0.75 0.75 0 0 0 -0.75 0.75v1c0 0.414 0.336 0.75 0.75 0.75h1a0.75 0.75 0 0 0 0.75 -0.75v-1a0.75 0.75 0 0 0 -0.75 -0.75h-1zm8.5 0a0.75 0.75 0 0 0 -0.75 0.75v1c0 0.414 0.336 0.75 0.75 0.75h1a0.75 0.75 0 0 0 0.75 -0.75v-1a0.75 0.75 0 0 0 -0.75 -0.75h-1z" fill="#99A2AD" fill-rule="nonzero"/></g></svg><svg width="24" height="24" viewBox="0 0 24 24" id="view_24" x="132" y="48" xmlns="http://www.w3.org/2000/svg"><defs><path d="M10 15c-4.2 0 -7 -4 -7 -5s2.8 -5 7 -5 7 4 7 5 -2.8 5 -7 5zm0 -1.5a3.5 3.5 0 1 0 0 -7 3.5 3.5 0 0 0 0 7zm0 -2a1.5 1.5 0 1 1 0 -3 1.5 1.5 0 0 1 0 3z" id="za"/></defs><g fill="none" fill-rule="evenodd"><path d="M0 0h24v24H0z"/><g transform="translate(2 2)"><path opacity=".4" d="M0 0h20v20H0z"/><use fill="#C0C5CC" xlink:href="#za"/></g></g></svg></svg>
